<?xml version="1.0" encoding="utf-8"?>
<!-- Generator: Adobe Illustrator 21.0.2, SVG Export Plug-In . SVG Version: 6.00 Build 0)  -->
<svg version="1.1" id="Layer_1" xmlns="http://www.w3.org/2000/svg" xmlns:xlink="http://www.w3.org/1999/xlink" x="0px" y="0px"
	 viewBox="0 0 288.7 283.7" style="enable-background:new 0 0 288.7 283.7;" xml:space="preserve">
<style type="text/css">
	.st0{fill:#BABABA;}
</style>
<g>
	<path class="st0" d="M145.2,281.5c-78.5,0-142.4-62.2-142.4-138.8S66.7,4,145.2,4s142.4,62.2,142.4,138.8S223.8,281.5,145.2,281.5z
		 M145.2,19.6c-69.7,0-126.4,55.2-126.4,123.1s56.7,123.1,126.4,123.1s126.4-55.2,126.4-123.1S214.9,19.6,145.2,19.6z"/>
</g>
<g>
	<polygon class="st0" points="220.9,128.3 159.6,128.3 159.6,67 136.8,67 136.8,128.3 70.4,128.3 70.4,150.6 136.8,150.6 
		136.8,213.6 159.6,213.6 159.6,150.6 220.9,150.6 	"/>
	<path class="st0" d="M159.8,213.8h-23.2v-63H70.2v-22.6h66.3V66.8h23.2v61.3h61.3v22.6h-61.3V213.8z M137,213.4h22.4v-63h61.3
		v-21.8h-61.3V67.2H137v61.3H70.7v21.8H137V213.4z"/>
</g>
</svg>
