<?xml version="1.0" encoding="utf-8"?>
<!-- Generator: Adobe Illustrator 21.0.2, SVG Export Plug-In . SVG Version: 6.00 Build 0)  -->
<svg version="1.1" id="Layer_1" xmlns="http://www.w3.org/2000/svg" xmlns:xlink="http://www.w3.org/1999/xlink" x="0px" y="0px"
	 viewBox="0 0 300 300" style="enable-background:new 0 0 300 300;" xml:space="preserve">
<style type="text/css">
	.st0{fill:#BABABA;}
</style>
<g>
	<path class="st0" d="M151,297c81.1,0,147-65.9,147-147S232.1,3,151,3S4,68.9,4,150S69.9,297,151,297z M151,19.6
		c71.9,0,130.4,58.5,130.4,130.4S222.9,280.4,151,280.4S20.6,221.9,20.6,150S79.1,19.6,151,19.6z"/>
	<polygon class="st0" points="110.2,169.4 110.4,169.2 176.9,235.7 188.3,224.4 121.7,157.9 188.3,91.3 176.9,80 110.4,146.5 
		110.2,146.3 98.9,157.6 99.1,157.9 98.9,158.1 	"/>
</g>
</svg>
