<?xml version="1.0" encoding="utf-8"?>
<!-- Generator: Adobe Illustrator 21.0.2, SVG Export Plug-In . SVG Version: 6.00 Build 0)  -->
<svg version="1.1" id="Layer_1" xmlns="http://www.w3.org/2000/svg" xmlns:xlink="http://www.w3.org/1999/xlink" x="0px" y="0px"
	 viewBox="0 0 296.3 283.7" style="enable-background:new 0 0 296.3 283.7;" xml:space="preserve">
<style type="text/css">
	.st0{fill:#86BDBB;}
</style>
<g>
	<path class="st0" d="M77.9,80.6c-25.3,0-50.6,0-75.9,0C2,55.3,2,30,2,4.7c25.2,0,50.5,0,75.9,0C77.9,29.9,77.9,55.2,77.9,80.6z
		 M27.3,30c0,8.5,0,16.9,0,25.2c8.5,0,16.8,0,25.2,0c0-8.4,0-16.8,0-25.2C44.1,30,35.8,30,27.3,30z"/>
	<path class="st0" d="M2,181.9c0-25.3,0-50.6,0-75.9c25.3,0,50.5,0,75.9,0c0,25.2,0,50.5,0,75.9C52.6,181.9,27.3,181.9,2,181.9z
		 M27.3,156.6c8.5,0,16.9,0,25.2,0c0-8.5,0-16.8,0-25.2c-8.4,0-16.8,0-25.2,0C27.3,139.8,27.3,148.1,27.3,156.6z"/>
	<path class="st0" d="M2,283.3c0-25.3,0-50.6,0-75.9c25.3,0,50.5,0,75.9,0c0,25.2,0,50.5,0,75.9C52.6,283.3,27.3,283.3,2,283.3z
		 M27.3,232.8c0,8.5,0,16.8,0,25.2c8.5,0,16.8,0,25.2,0c0-8.4,0-16.8,0-25.2C44.1,232.8,35.8,232.8,27.3,232.8z"/>
	<path class="st0" d="M103.4,55.2c0-8.4,0-16.8,0-25.2c63.3,0,126.6,0,189.9,0c0,8.4,0,16.7,0,25.2C230,55.2,166.7,55.2,103.4,55.2z
		"/>
	<path class="st0" d="M293.3,131.4c0,8.4,0,16.8,0,25.2c-63.3,0-126.6,0-190,0c0-8.4,0-16.7,0-25.2
		C166.6,131.4,229.9,131.4,293.3,131.4z"/>
	<path class="st0" d="M293.3,232.8c0,8.4,0,16.8,0,25.2c-63.3,0-126.6,0-190,0c0-8.4,0-16.8,0-25.2
		C166.6,232.8,229.9,232.8,293.3,232.8z"/>
</g>
</svg>
