<?xml version="1.0" encoding="utf-8"?>
<!-- Generator: Adobe Illustrator 21.0.2, SVG Export Plug-In . SVG Version: 6.00 Build 0)  -->
<svg version="1.1" id="Layer_1" xmlns="http://www.w3.org/2000/svg" xmlns:xlink="http://www.w3.org/1999/xlink" x="0px" y="0px"
	 viewBox="0 0 1097.7 258.3" style="enable-background:new 0 0 1097.7 258.3;" xml:space="preserve">
<style type="text/css">
	.st0{fill:#FFFFFF;}
</style>
<g>
	<path class="st0" d="M27.7,58.6c-3.7,6.7-7,11.7-9.8,15c-2.9,3.3-5.2,5-7,5C8.3,78.6,7,75.7,7,70c0-5.5,0.8-10.5,2.4-14.9
		c1.6-4.4,3.8-8.3,6.7-11.8c2.9-3.4,6.3-6.3,10.2-8.7c3.9-2.4,8.2-4.4,12.9-5.9c4.7-1.6,9.6-2.7,14.8-3.4c5.2-0.7,10.6-1.1,16-1.1
		c6.4,0,12.8,0.5,19.3,1.4c6.5,0.9,12.6,2.2,18.6,3.9c5.9,1.7,11.5,3.8,16.6,6.2c5.1,2.4,9.6,5.1,13.5,8c3.8,2.9,6.8,6.1,9,9.5
		c2.2,3.4,3.3,6.9,3.3,10.6c0,4.4-0.9,8.7-2.8,12.9c-1.9,4.2-4.9,8.1-8.9,11.5c-4,3.4-9.2,6.2-15.5,8.4c-6.3,2.2-13.9,3.4-22.7,3.6
		c5.6,0,10.5,0.9,14.7,2.7c4.2,1.8,7.7,4.2,10.5,7.2c2.8,3,5,6.5,6.4,10.5c1.4,4,2.1,8.1,2.1,12.5c0,3.6-0.5,7.2-1.4,10.9
		c-1,3.7-2.4,7.2-4.3,10.6c-1.9,3.4-4.3,6.6-7.2,9.6c-2.9,3-6.3,5.6-10.1,7.8c-3.9,2.2-8.2,3.9-13.1,5.2c-4.9,1.3-10.2,1.9-16,1.9
		c-3.7,0-7.6-0.2-11.6-0.7c-4.1-0.5-8.2-1.1-12.4-2c-4.2-0.8-8.2-1.8-12.3-2.9c-4-1.1-7.8-2.3-11.4-3.7c-1.6-0.4-3-1-4.2-1.8
		c-1.2-0.8-1.8-2.2-1.8-4.2c0-9.4,0.2-19,0.7-28.9c0.5-9.8,1.5-19.5,2.9-28.9c1.5-9.4,3.6-18.4,6.4-26.9c2.8-8.5,6.5-16.1,11-22.9
		c4-2.8,7.7-4.2,11-4.2c4.1,0,7.6,2.3,10.4,7c-2.6,3.5-4.8,7.4-6.7,11.7c-1.8,4.3-3.4,8.8-4.6,13.5c-1.2,4.7-2.2,9.6-3,14.5
		c-0.8,4.9-1.4,9.7-1.8,14.4c-0.3,2.7-0.5,5.5-0.7,8.5c-0.2,3-0.4,6.1-0.6,9.2c-0.2,3.1-0.3,6.2-0.4,9.3c-0.1,3.1-0.1,6-0.1,8.9
		c0,0.5,0,1.1,0,1.9c0,0.8,0.1,1.6,0.2,2.5c0.1,0.8,0.3,1.6,0.5,2.3c0.2,0.7,0.6,1.2,1,1.6c3.5,1.1,7.2,2.1,11.1,2.9
		c4,0.8,7.9,1.2,11.9,1.2c4.8,0,9.5-0.6,14-1.7c4.5-1.2,8.5-3,12.1-5.5c3.5-2.5,6.3-5.7,8.4-9.7c2.1-3.9,3.2-8.7,3.2-14.3
		c0-3.3-0.6-6-1.9-8.2c-1.2-2.2-2.9-4-4.9-5.5c-2-1.5-4.3-2.6-6.9-3.5c-2.6-0.9-5.2-1.7-7.9-2.4c-2.7-0.7-5.3-1.4-7.9-2.1
		c-2.6-0.7-4.9-1.5-6.9-2.6c-2-1-3.6-2.3-4.9-3.9c-1.2-1.6-1.9-3.6-1.9-6.1c0-1.2,0.1-2.2,0.2-3.1c0.1-0.9,0.5-1.6,1-2.2
		c0.5-0.6,1.3-1,2.4-1.3c1-0.3,2.5-0.4,4.3-0.4c2.4,0,4.7,0.1,6.7,0.3c2,0.2,4.2,0.3,6.5,0.3c5.4,0,10.3-0.7,14.7-2
		c4.4-1.3,8.1-3.1,11.2-5.4c3.1-2.3,5.5-4.9,7.1-7.9c1.7-3,2.5-6.3,2.5-9.7c0-2.3-0.7-4.3-2-6.2c-1.3-1.9-3.1-3.6-5.5-5.1
		c-2.3-1.5-5.1-2.8-8.3-3.9c-3.2-1.1-6.6-2.1-10.4-2.8s-7.7-1.3-11.8-1.7c-4.1-0.4-8.3-0.6-12.6-0.6c-5.4,0-10.7,0.3-15.9,0.9
		c-5.2,0.6-10.1,1.5-14.6,2.7c-4.5,1.2-8.5,2.7-12,4.6C32.1,54,29.5,56.1,27.7,58.6z"/>
	<path class="st0" d="M162.1,171.5c-3.1,0-5.9-1.3-8.5-4c-2.6-2.7-4.9-6.3-6.9-10.8c-2-4.5-3.5-9.8-4.6-15.7
		c-1.1-6-1.7-12.2-1.7-18.8c0-5,0.4-10.5,1.1-16.4c0.7-5.9,1.8-12,3.2-18.3c1.4-6.3,3.1-12.6,5.1-18.9c2-6.3,4.2-12.4,6.6-18.3
		c2.5-5.8,5.1-11.3,8-16.3c2.9-5.1,5.9-9.5,9.1-13.2c3.2-3.8,6.5-6.7,9.9-8.9c3.5-2.1,7-3.2,10.5-3.2c2.4,0,4.4,0.6,6,1.7
		c1.6,1.1,2.8,2.6,3.7,4.4c0.9,1.8,1.5,3.9,1.9,6.2c0.4,2.3,0.6,4.6,0.6,7c0,5.3-0.6,10.7-1.8,16.3c-1.2,5.5-2.9,11.1-4.9,16.6
		c-2.1,5.6-4.5,11.2-7.2,16.8c-2.7,5.6-5.5,11.2-8.5,16.7c-2.9,5.5-5.9,11-8.9,16.3c-3,5.3-5.8,10.6-8.4,15.7
		c-0.3,0.6-0.6,1.3-0.9,2.2c-0.3,0.9-0.6,1.9-0.9,2.9c-0.3,1-0.6,2.2-0.8,3.4c-0.3,1.2-0.5,2.3-0.7,3.5v1.2c0,1.5,0.2,2.9,0.5,4.3
		c0.3,1.4,0.7,2.6,1.1,3.7c0.5,1.1,0.9,2,1.4,2.6c0.5,0.7,1,1,1.4,1c1.1,0,2.3-0.2,3.7-0.7c1.4-0.5,2.9-1.1,4.4-1.8
		c1.6-0.8,3.2-1.6,4.8-2.6c1.6-1,3.2-2,4.8-3c3.6-2.4,7.3-5.1,11.2-8.2l7,17.8c-5,3.6-10,6.8-14.9,9.7c-2.2,1.2-4.4,2.4-6.7,3.5
		c-2.3,1.2-4.6,2.2-6.9,3.1c-2.3,0.9-4.6,1.6-6.8,2.2C166,171.2,164,171.5,162.1,171.5z M162.1,103.6c2.5-4.5,5.2-9.6,8.1-15.3
		c2.9-5.7,5.6-11.5,8.1-17.5c2.5-6,4.8-12,6.6-18c1.9-6,3.1-11.5,3.6-16.7c0-1.6,0-3-0.1-4.2c-0.1-1.2-0.4-1.7-0.8-1.7
		c-1.6,0-3.4,1.1-5.3,3.2c-1.9,2.1-3.8,5-5.7,8.6c-1.9,3.6-3.7,7.8-5.4,12.6c-1.7,4.8-3.3,9.9-4.6,15.4c-1.4,5.4-2.4,11-3.2,16.8
		C162.5,92.5,162.1,98.1,162.1,103.6z"/>
	<path class="st0" d="M244.1,107.9c1.6,3.3,2.9,6.7,3.7,10.4c0.8,3.7,1.2,7.1,1.2,10.5c0,3.3-0.4,6.7-1.1,10.1
		c-0.7,3.4-1.8,6.7-3.2,9.8c-1.4,3.2-3.1,6.1-5.1,8.9c-2,2.8-4.3,5.2-6.9,7.2c-2.6,2-5.4,3.7-8.4,4.8s-6.3,1.8-9.8,1.8
		c-5,0-9.2-1.1-12.8-3.3c-3.5-2.2-6.4-5-8.7-8.5c-2.3-3.5-3.9-7.5-5-11.9c-1-4.4-1.6-8.9-1.6-13.4c0-6.2,0.9-12,2.8-17.4
		c1.9-5.4,4.5-10.1,8-14.1c3.5-4,7.7-7.1,12.8-9.4c5-2.3,10.7-3.4,17-3.4c5.4,0,10.4,0.8,15.1,2.5c4.7,1.7,9.1,3.9,13.2,6.7
		c4.1,2.8,7.9,6,11.5,9.6c3.5,3.6,6.8,7.4,9.9,11.2l-1.6,12c-1.5-2-3.6-4.2-6.2-6.6c-2.6-2.4-5.4-4.7-8.3-7
		c-2.9-2.3-5.8-4.4-8.6-6.4c-2.8-2-5.3-3.7-7.3-5.1L244.1,107.9z M217.8,155.2c1.9,0,3.8-1,5.6-2.9c1.8-2,3.4-4.4,4.8-7.4
		c1.4-3,2.4-6.3,3.3-9.8c0.8-3.6,1.2-7,1.2-10.3c0-2.6-0.2-5-0.6-7.3c-0.4-2.2-1-4.2-1.8-5.8c-0.8-1.6-1.8-2.9-3.1-3.9
		c-1.2-1-2.7-1.4-4.5-1.4c-2.3,0-4.5,1-6.6,3c-2.1,2-3.9,4.5-5.5,7.6c-1.6,3.1-2.8,6.5-3.7,10.2c-0.9,3.7-1.4,7.3-1.4,10.8
		c0,2.4,0.2,4.6,0.7,6.7c0.5,2.1,1.2,3.9,2.1,5.5c1,1.6,2.2,2.8,3.8,3.7C213.7,154.7,215.6,155.2,217.8,155.2z"/>
	<path class="st0" d="M301.1,162.6c-3.1,2.7-6.2,4.9-9.6,6.6c-3.3,1.7-6.5,2.5-9.6,2.5c-2.7,0-5.4-0.6-7.9-1.7
		c-2.6-1.1-4.9-2.7-6.8-4.8c-2-2.1-3.6-4.6-4.8-7.6c-1.2-3-1.8-6.3-1.8-10.1c0-4.2,0.6-8.6,1.8-13.1c1.2-4.5,2.8-8.8,4.9-13.1
		c2.1-4.3,4.6-8.3,7.4-12.1c2.9-3.8,6-7.1,9.4-9.9c3.4-2.8,7-5.1,10.7-6.7c3.8-1.7,7.6-2.5,11.5-2.5c1.3,0,2.3,0.3,3.1,0.8
		c0.7,0.5,1.3,1.1,1.8,1.7c0.5,0.7,0.9,1.3,1.4,1.9c0.5,0.6,1,1.1,1.7,1.4c0.7,0.3,1.4,0.5,2.1,0.6c0.7,0.1,1.4,0.1,2.2,0.1
		c0.6,0,1.3,0,1.9,0c0.6,0,1.3,0,1.9,0c0.8,0,1.6,0.1,2.4,0.3c0.7,0.2,1.4,0.5,2,1.1c0.6,0.6,1,1.4,1.3,2.4c0.3,1,0.5,2.4,0.5,4.2
		c0,1.5-0.1,3.5-0.3,5.9c-0.2,2.5-0.5,5.3-0.9,8.3c-0.4,3.1-0.8,6.3-1.3,9.7c-0.5,3.4-1,6.8-1.5,10.1c-1.2,7.8-2.5,16.2-4.1,25
		c1.7-1,3.5-2.2,5.5-3.6c2-1.4,4.2-3.3,6.6-5.7c2.4-2.4,5.1-5.4,8.2-9c3-3.6,6.4-8.1,10.1-13.5l4.1,18.8c-1,1.8-2.3,3.6-3.9,5.4
		c-1.6,1.8-3.4,3.7-5.3,5.5c-2,1.8-4,3.6-6.1,5.3c-2.1,1.7-4.2,3.4-6.2,4.9c-4.8,3.6-10,7.1-15.5,10.5c-1.1,6.1-2.3,12-3.8,17.7
		c-1.5,5.7-3.2,11.1-5.2,16.1c-2,5-4.3,9.6-6.9,13.8c-2.6,4.2-5.5,7.8-8.7,10.8c-3.3,3-6.9,5.3-10.9,7c-4,1.7-8.5,2.5-13.3,2.5
		c-1.9,0-4-0.2-6.2-0.6c-2.2-0.4-4.3-1.2-6.2-2.4s-3.5-2.9-4.7-5.1c-1.2-2.2-1.9-5.2-1.9-8.8c0-2.5,0.7-5.4,2-8.6
		c1.3-3.2,3.1-6.6,5.3-10.1c2.3-3.5,5-7.2,8.1-11c3.1-3.8,6.5-7.6,10.1-11.4c3.7-3.8,7.5-7.5,11.5-11.2c4-3.7,8-7.2,12.1-10.5
		L301.1,162.6z M269.8,234c2.4,0,4.6-0.7,6.7-2.1c2.1-1.4,4.1-3.2,5.9-5.5c1.8-2.3,3.4-4.8,4.9-7.7c1.5-2.9,2.8-5.8,3.9-8.9
		c1.1-3,2.1-6,2.9-8.9c0.8-2.9,1.4-5.5,1.9-7.7c-2.2,1.5-4.5,3.2-6.7,5.3c-2.3,2-4.5,4.2-6.7,6.6c-2.2,2.3-4.2,4.8-6.2,7.3
		c-2,2.5-3.7,4.9-5.1,7.2c-1.5,2.3-2.6,4.4-3.5,6.4c-0.8,2-1.3,3.6-1.3,4.9C266.4,232.9,267.5,234,269.8,234z M282.4,144
		c0,1.4,0.1,2.8,0.3,4.1c0.2,1.3,0.6,2.5,1.1,3.6c0.5,1,1.2,1.9,2,2.5c0.8,0.7,1.9,1,3.2,1c2.1,0,4-0.9,5.7-2.7
		c1.7-1.8,3.2-4,4.4-6.5c1.2-2.5,2.2-5.2,3-7.9s1.3-5,1.5-6.8l5.2-25c-2.3,0-4.6,0.6-6.8,1.7c-2.2,1.2-4.3,2.7-6.2,4.7
		c-2,2-3.8,4.2-5.4,6.8c-1.6,2.5-3.1,5.2-4.2,8c-1.2,2.8-2.1,5.6-2.8,8.4C282.7,138.8,282.4,141.5,282.4,144z"/>
	<path class="st0" d="M379.9,162.6c-3.1,2.7-6.2,4.9-9.6,6.6c-3.3,1.7-6.5,2.5-9.6,2.5c-2.7,0-5.4-0.6-7.9-1.7
		c-2.6-1.1-4.9-2.7-6.8-4.8c-2-2.1-3.6-4.6-4.8-7.6c-1.2-3-1.8-6.3-1.8-10.1c0-4.2,0.6-8.6,1.8-13.1c1.2-4.5,2.8-8.8,4.9-13.1
		c2.1-4.3,4.6-8.3,7.4-12.1c2.9-3.8,6-7.1,9.4-9.9c3.4-2.8,7-5.1,10.7-6.7c3.8-1.7,7.6-2.5,11.5-2.5c1.3,0,2.3,0.3,3.1,0.8
		c0.7,0.5,1.3,1.1,1.8,1.7c0.5,0.7,0.9,1.3,1.4,1.9c0.5,0.6,1,1.1,1.7,1.4c0.7,0.3,1.4,0.5,2.1,0.6c0.7,0.1,1.4,0.1,2.2,0.1
		c0.6,0,1.3,0,1.9,0c0.6,0,1.3,0,1.9,0c0.8,0,1.6,0.1,2.4,0.3c0.7,0.2,1.4,0.5,2,1.1c0.6,0.6,1,1.4,1.3,2.4c0.3,1,0.5,2.4,0.5,4.2
		c0,1.5-0.1,3.5-0.3,5.9c-0.2,2.5-0.5,5.3-0.9,8.3c-0.4,3.1-0.8,6.3-1.3,9.7c-0.5,3.4-1,6.8-1.5,10.1c-1.2,7.8-2.5,16.2-4.1,25
		c1.7-1,3.5-2.2,5.5-3.6c2-1.4,4.2-3.3,6.6-5.7c2.4-2.4,5.1-5.4,8.2-9c3-3.6,6.4-8.1,10.1-13.5l4.1,18.8c-1,1.8-2.3,3.6-3.9,5.4
		c-1.6,1.8-3.4,3.7-5.3,5.5c-2,1.8-4,3.6-6.1,5.3c-2.1,1.7-4.2,3.4-6.2,4.9c-4.8,3.6-10,7.1-15.5,10.5c-1.1,6.1-2.3,12-3.8,17.7
		c-1.5,5.7-3.2,11.1-5.2,16.1c-2,5-4.3,9.6-6.9,13.8c-2.6,4.2-5.5,7.8-8.7,10.8c-3.3,3-6.9,5.3-10.9,7c-4,1.7-8.5,2.5-13.3,2.5
		c-1.9,0-4-0.2-6.2-0.6c-2.2-0.4-4.3-1.2-6.2-2.4s-3.5-2.9-4.7-5.1c-1.2-2.2-1.9-5.2-1.9-8.8c0-2.5,0.7-5.4,2-8.6
		c1.3-3.2,3.1-6.6,5.3-10.1c2.3-3.5,5-7.2,8.1-11c3.1-3.8,6.5-7.6,10.1-11.4c3.7-3.8,7.5-7.5,11.5-11.2c4-3.7,8-7.2,12.1-10.5
		L379.9,162.6z M348.6,234c2.4,0,4.6-0.7,6.7-2.1c2.1-1.4,4.1-3.2,5.9-5.5c1.8-2.3,3.4-4.8,4.9-7.7c1.5-2.9,2.8-5.8,3.9-8.9
		c1.1-3,2.1-6,2.9-8.9c0.8-2.9,1.4-5.5,1.9-7.7c-2.2,1.5-4.5,3.2-6.7,5.3c-2.3,2-4.5,4.2-6.7,6.6c-2.2,2.3-4.2,4.8-6.2,7.3
		c-2,2.5-3.7,4.9-5.1,7.2c-1.5,2.3-2.6,4.4-3.5,6.4c-0.8,2-1.3,3.6-1.3,4.9C345.2,232.9,346.3,234,348.6,234z M361.1,144
		c0,1.4,0.1,2.8,0.3,4.1c0.2,1.3,0.6,2.5,1.1,3.6c0.5,1,1.2,1.9,2,2.5c0.8,0.7,1.9,1,3.2,1c2.1,0,4-0.9,5.7-2.7
		c1.7-1.8,3.2-4,4.4-6.5c1.2-2.5,2.2-5.2,3-7.9s1.3-5,1.5-6.8l5.2-25c-2.3,0-4.6,0.6-6.8,1.7c-2.2,1.2-4.3,2.7-6.2,4.7
		c-2,2-3.8,4.2-5.4,6.8c-1.6,2.5-3.1,5.2-4.2,8c-1.2,2.8-2.1,5.6-2.8,8.4C361.5,138.8,361.1,141.5,361.1,144z"/>
	<path class="st0" d="M452.3,171.5c-5.3,0-10-1-14-2.9c-4-1.9-7.3-4.5-10-7.8c-2.7-3.3-4.7-7-6-11.3c-1.3-4.3-2-8.8-2-13.5
		c0-3.2,0.3-6.5,0.9-10.1c0.6-3.5,1.6-7,2.8-10.4s2.9-6.6,4.8-9.7c1.9-3.1,4.2-5.8,6.7-8.1c2.6-2.3,5.5-4.2,8.7-5.6
		c3.2-1.4,6.7-2.1,10.7-2.1c3.2,0,6.1,0.5,8.8,1.5c2.7,1,5.1,2.4,7.1,4.3c2,1.8,3.6,4.1,4.7,6.7c1.1,2.6,1.7,5.5,1.7,8.7
		c0,3.5-0.9,7-2.6,10.5c-1.7,3.5-4.1,6.8-7.2,9.9c-3.1,3.1-6.7,5.9-10.9,8.3c-4.2,2.4-8.8,4.3-13.7,5.7c0.8,1.5,1.7,2.8,2.5,3.8
		c0.8,1,1.7,1.8,2.5,2.4c0.8,0.6,1.7,1,2.7,1.2c0.9,0.2,1.9,0.3,3,0.3c3.4,0,7-0.7,10.7-2c3.8-1.4,7.4-3.1,11-5.1
		c3.6-2,6.9-4.3,10.1-6.7c3.2-2.4,5.9-4.7,8.1-6.8l11,11.4c-5,5.2-10.3,9.7-15.9,13.7c-2.4,1.7-5.1,3.4-7.9,5s-5.7,3.1-8.8,4.4
		c-3.1,1.3-6.3,2.3-9.6,3.1C459.1,171.1,455.7,171.5,452.3,171.5z M441,131.6c2,0,4.3-0.5,6.7-1.6c2.4-1,4.6-2.4,6.7-4
		c2.1-1.6,3.8-3.4,5.2-5.3c1.4-1.9,2.1-3.8,2.1-5.6c0-2.5-0.5-4.6-1.4-6.3c-0.9-1.6-2.1-2.5-3.4-2.5c-2.4,0-4.5,0.5-6.2,1.4
		c-1.7,0.9-3.2,2.1-4.3,3.5c-1.2,1.4-2.1,3.1-2.8,4.9c-0.7,1.8-1.2,3.7-1.6,5.6c-0.4,1.9-0.6,3.7-0.7,5.4
		C441.1,128.8,441,130.3,441,131.6z"/>
	<path class="st0" d="M490.4,153.7c0-2.5,0.1-5.4,0.4-8.7c0.3-3.3,0.7-6.8,1.1-10.5c0.5-3.7,1-7.4,1.7-11.2
		c0.6-3.8,1.3-7.5,2.1-10.9c0.7-3.5,1.5-6.6,2.2-9.5c0.7-2.9,1.5-5.3,2.2-7.1c0.5-1.2,0.9-2.2,1.4-3c0.5-0.7,1-1.3,1.6-1.7
		c0.6-0.4,1.3-0.7,2.2-0.8c0.9-0.1,2-0.2,3.3-0.2c1.5,0,2.6,0.1,3.4,0.2c0.8,0.1,1.4,0.5,1.8,1c0.4,0.5,0.6,1.3,0.7,2.3
		c0.1,1,0.1,2.4,0.1,4.2c0,2.1,0,4.6,0,7.6s0.1,5.9,0.2,8.8h0.9c1.1-2.3,2.4-4.8,3.8-7.6c1.4-2.8,3.1-5.4,4.9-7.9
		c1.9-2.4,4-4.5,6.4-6.2c2.4-1.7,5.1-2.5,8.2-2.5c1.1,0,2.1,0.2,3.1,0.6c1,0.4,1.9,0.9,2.7,1.6s1.4,1.5,1.8,2.5
		c0.5,1,0.7,2.1,0.7,3.4c0,1-0.1,2.3-0.4,4c-0.3,1.7-0.6,3.5-0.9,5.4c-0.3,1.9-0.7,3.7-0.9,5.5c-0.3,1.8-0.4,3.3-0.4,4.5
		c0,2,0.2,3.7,0.6,5.1c0.4,1.4,0.9,2.4,1.6,3.3c0.6,0.8,1.4,1.4,2.2,1.7c0.8,0.3,1.7,0.5,2.6,0.5c2.5,0,5.2-0.6,7.9-1.7
		c2.7-1.1,5.2-2.4,7.5-3.8c2.7-1.6,5.3-3.5,7.8-5.6l-1.3,19.9c-1.5,1-3.1,2-5,3.2s-3.9,2.3-6,3.4c-2.1,1-4.3,1.9-6.6,2.6
		c-2.3,0.7-4.6,1.1-7,1.1c-4.2,0-7.7-0.9-10.3-2.6c-2.6-1.7-4.7-4-6.2-6.8c-1.5-2.8-2.7-5.9-3.4-9.4c-0.7-3.5-1.3-7-1.8-10.6H526
		L510.8,160c-0.8,2.2-1.5,4-2.2,5.5c-0.7,1.4-1.4,2.6-2.2,3.5c-0.7,0.9-1.5,1.5-2.4,1.9c-0.8,0.4-1.8,0.6-2.8,0.6
		c-2.3,0-4.2-0.5-5.6-1.5c-1.4-1-2.5-2.3-3.3-4c-0.8-1.7-1.3-3.6-1.5-5.7C490.6,158.2,490.4,156,490.4,153.7z"/>
	<path class="st0" d="M637.6,103.1c3.2-4,6.1-7.1,8.7-9.6c2.6-2.4,5.2-3.6,7.9-3.6c3.3,0,6.3,0.7,8.9,2.2c2.6,1.5,4.8,3.4,6.6,5.9
		c1.8,2.4,3.2,5.2,4.2,8.4c1,3.2,1.4,6.5,1.4,9.9c0,2.9-0.1,5.6-0.3,8.2c-0.2,2.6-0.6,5.1-1.2,7.6c-0.6,2.5-1.4,4.9-2.5,7.3
		c-1,2.4-2.4,5-4.1,7.6c2-1.2,4.1-2.3,6.2-3.5c2.1-1.1,4.2-2.4,6.3-3.7c2.1-1.4,4.3-2.9,6.4-4.5c2.2-1.7,4.4-3.6,6.6-5.9l6.5,14
		c-3.1,2.8-6.2,5.3-9.3,7.4c-3.1,2.1-6.3,3.9-9.5,5.5c-3.3,1.6-6.7,2.9-10.2,4c-3.5,1.1-7.3,2.2-11.2,3.1c-1,1-2.3,1.9-3.9,2.9
		c-1.7,1-3.3,1.8-5,2.6c-1.9,0.9-3.9,1.8-6,2.6h-2.1c-4.8,0-9.6-0.7-14.3-2c-4.7-1.3-9-2.8-12.9-4.5c-4.5-1.9-8.7-4-12.8-6.5
		c0.2-4.6,0.5-9.8,1-15.5c0.5-5,1.1-10.9,1.9-17.6c0.8-6.8,1.9-14.3,3.2-22.6c0.9-5.5,2-11.7,3.4-18.5c1.4-6.8,3-13.7,4.8-20.7
		c1.8-7,3.9-13.8,6.2-20.4c2.3-6.6,4.8-12.5,7.6-17.6c2.8-5.1,5.9-9.3,9.2-12.4c3.3-3.1,6.9-4.7,10.7-4.7c4.3,0,7.8,0.7,10.4,2.2
		c2.6,1.5,4.6,3.5,6,6c1.4,2.5,2.3,5.5,2.8,8.9c0.5,3.4,0.7,7,0.7,10.9c0,5.4-1,10.9-3,16.6c-2,5.7-4.6,11.4-7.9,17.1
		s-6.8,11.2-10.8,16.7c-4,5.4-8,10.6-11.9,15.4L637.6,103.1z M645.2,109.3c-2,0-4,0.4-5.9,1.2c-2,0.8-3.8,2.1-5.5,3.8
		c-1.7,1.7-3.2,3.9-4.5,6.6c-1.3,2.7-2.3,5.9-2.9,9.7c-0.5,3.1-0.9,5.9-1.3,8.4c-0.3,2.6-0.6,4.9-0.8,6.8c-0.2,2.3-0.4,4.4-0.6,6.4
		c1.9,0.6,3.7,1,5.6,1.4c1.6,0.3,3.4,0.7,5.2,0.9c1.8,0.3,3.5,0.4,5.2,0.4c1.9,0,3.7-0.6,5.3-1.7c1.6-1.1,3-2.6,4.2-4.5
		c1.2-1.9,2.3-4.1,3.2-6.5c0.9-2.4,1.6-5,2.2-7.6c0.6-2.6,1-5.2,1.3-7.8c0.3-2.6,0.4-4.9,0.4-7.1c0-1.4-0.2-2.8-0.5-4
		c-0.3-1.3-0.9-2.4-1.7-3.4c-0.8-1-2-1.7-3.4-2.3S647.4,109.3,645.2,109.3z M653.5,31.6c0-0.2,0-0.7-0.1-1.4
		c-0.1-0.7-0.3-1.5-0.6-2.3c-0.3-0.8-0.8-1.5-1.3-2.1c-0.6-0.6-1.3-0.9-2.3-0.9c-1.1,0-2.3,0.8-3.5,2.4c-1.2,1.6-2.4,3.8-3.6,6.5
		c-1.2,2.7-2.3,5.9-3.5,9.5c-1.1,3.6-2.2,7.4-3.3,11.3c-1.1,3.9-2.1,7.9-3,12s-1.8,7.9-2.5,11.6s-1.4,7-2,10c-0.6,3-1,5.5-1.4,7.3
		c1.5-2.9,3.2-6,5.1-9.2c1.9-3.2,3.8-6.5,5.7-9.9c1.9-3.4,3.8-6.9,5.6-10.5c1.8-3.6,3.5-7.3,5-11c1.5-3.8,2.7-7.6,3.7-11.5
		C652.6,39.5,653.2,35.6,653.5,31.6z"/>
	<path class="st0" d="M734.2,106.3c0.5-1.9,1.3-3.6,2.4-5.1c1.2-1.5,2.5-2.8,4-3.8c1.5-1,3.1-1.8,4.7-2.3c1.6-0.5,3.2-0.8,4.7-0.8
		c1.8,0,3.2,0.4,4.4,1.1c1.2,0.8,1.8,2,1.8,3.6c0,0.5-0.1,1.1-0.3,1.8c-0.3,1.5-0.8,3.5-1.3,6c-0.5,2.5-1.1,5.4-1.7,8.7
		s-1.2,6.6-1.8,10.2c-0.6,3.6-1.2,7.2-1.8,10.7c-1.4,8.4-2.9,17.4-4.3,27c1.7-1,3.5-2.2,5.5-3.6c2-1.4,4.2-3.3,6.6-5.7
		c2.4-2.4,5.1-5.4,8.2-9c3-3.6,6.4-8.1,10.1-13.5l4.1,18.8c-1,1.8-2.3,3.6-3.9,5.4c-1.6,1.8-3.4,3.7-5.3,5.5c-2,1.8-4,3.6-6.1,5.3
		c-2.1,1.7-4.2,3.4-6.2,4.9c-4.8,3.6-10,7.1-15.5,10.5c-1.1,6.1-2.3,12-3.8,17.7c-1.5,5.7-3.2,11.1-5.2,16.1c-2,5-4.3,9.6-6.9,13.8
		c-2.6,4.2-5.5,7.8-8.7,10.8c-3.3,3-6.9,5.3-10.9,7c-4,1.7-8.5,2.5-13.3,2.5c-1.9,0-4-0.2-6.2-0.6c-2.2-0.4-4.3-1.2-6.2-2.4
		s-3.5-2.9-4.7-5.1c-1.2-2.2-1.9-5.2-1.9-8.8c0-2.5,0.7-5.4,2-8.6c1.3-3.2,3.1-6.6,5.3-10.1c2.3-3.5,5-7.2,8.1-11
		c3.1-3.8,6.5-7.6,10.1-11.4c3.7-3.8,7.5-7.5,11.5-11.2c4-3.7,8-7.2,12.1-10.5l2.3-7.9c-3.1,2.7-6.2,4.9-9.6,6.6
		c-3.3,1.7-6.5,2.5-9.6,2.5c-2.7,0-5.4-0.6-7.9-1.7c-2.6-1.1-4.9-2.7-6.8-4.8c-2-2.1-3.6-4.6-4.8-7.6c-1.2-3-1.8-6.3-1.8-10.1
		c0-4.9,0.2-9.5,0.7-13.6c0.5-4.1,1.2-8.1,2.1-11.8c0.9-3.7,2-7.3,3.4-10.8c1.4-3.5,2.9-7,4.7-10.6c1.3-2.5,3.2-4.5,5.6-5.8
		c2.4-1.3,4.8-2,7.1-2c2,0,3.7,0.5,5.1,1.5c1.4,1,2.1,2.5,2.1,4.6c0,0.6-0.1,1.3-0.2,2c-0.1,0.7-0.4,1.5-0.7,2.4c-1,2.6-2,5.7-3,9.2
		c-1,3.5-1.9,7.2-2.6,10.9c-0.8,3.7-1.4,7.3-1.8,10.9c-0.5,3.6-0.7,6.7-0.7,9.4c0,1.4,0.1,2.8,0.3,4.1c0.2,1.3,0.6,2.5,1.1,3.6
		c0.5,1,1.2,1.9,2,2.5c0.8,0.7,1.9,1,3.2,1c2.1,0,4-0.9,5.7-2.7c1.7-1.8,3.2-4,4.4-6.5c1.2-2.5,2.2-5.2,3-7.9s1.3-5,1.5-6.8
		L734.2,106.3z M694.4,234c2.4,0,4.6-0.7,6.7-2.1c2.1-1.4,4.1-3.2,5.9-5.5c1.8-2.3,3.4-4.8,4.9-7.7c1.5-2.9,2.8-5.8,3.9-8.9
		c1.1-3,2.1-6,2.9-8.9c0.8-2.9,1.4-5.5,1.9-7.7c-2.2,1.5-4.5,3.2-6.7,5.3c-2.3,2-4.5,4.2-6.7,6.6c-2.2,2.3-4.2,4.8-6.2,7.3
		c-2,2.5-3.7,4.9-5.1,7.2c-1.5,2.3-2.6,4.4-3.5,6.4c-0.8,2-1.3,3.6-1.3,4.9C691,232.9,692.2,234,694.4,234z"/>
	<path class="st0" d="M851.5,24.1c9.2,0,17.4,0.8,24.6,2.3c7.2,1.5,13.5,3.7,18.9,6.4c5.4,2.7,10,6,13.7,9.7
		c3.7,3.8,6.8,7.9,9.1,12.3c2.3,4.4,4,9.2,5.1,14.1c1,5,1.6,10.1,1.6,15.3c0,7.1-0.8,14.4-2.4,21.7c-1.6,7.3-3.9,14.4-6.9,21.3
		c-3,6.8-6.7,13.3-11.1,19.3c-4.4,6-9.4,11.2-15.1,15.7c-5.7,4.5-11.9,8-18.7,10.6c-6.8,2.6-14.1,3.9-22,3.9c-2.7,0-5.4-0.2-8.2-0.6
		c-2.8-0.4-5.5-0.9-8.1-1.6c-2.6-0.7-5.1-1.4-7.4-2.3c-2.3-0.8-4.4-1.7-6.1-2.6c-0.7-0.2-1.3-0.5-1.7-0.8c-0.4-0.3-0.8-0.7-1-1.1
		c-0.2-0.4-0.4-0.9-0.4-1.6c-0.1-0.6-0.1-1.4-0.1-2.4c0-9.4,0.2-19,0.7-28.9c0.5-9.8,1.5-19.5,2.9-28.9c1.5-9.4,3.6-18.4,6.4-26.9
		c2.8-8.5,6.5-16.1,11-22.9c4-2.8,7.7-4.2,11-4.2c4.1,0,7.6,2.3,10.4,7c-2.6,3.5-4.8,7.4-6.5,11.7c-1.8,4.3-3.2,8.8-4.4,13.5
		c-1.2,4.7-2.2,9.6-3,14.5c-0.8,4.9-1.5,9.7-2.2,14.4c-0.8,5.2-1.5,9.7-2,13.4c-0.5,3.7-1,6.9-1.3,9.7c-0.3,2.8-0.5,5.2-0.7,7.3
		c-0.1,2.1-0.2,4.1-0.2,6.1c0,2.1,0.1,3.8,0.2,5.3c0.1,1.4,0.5,2.5,1,3.4c0.5,0.8,1.4,1.5,2.5,1.8c1.1,0.4,2.6,0.6,4.5,0.6
		c5.7,0,11-1.1,16.1-3.4c5.1-2.2,9.8-5.2,14.1-9c4.3-3.8,8.2-8.1,11.6-13.1c3.4-5,6.3-10.2,8.7-15.8c2.4-5.5,4.3-11.2,5.6-16.9
		c1.3-5.7,2-11.3,2-16.6c0-6.6-1.1-12.4-3.2-17.6c-2.2-5.2-5.2-9.6-9-13.2c-3.9-3.6-8.5-6.3-14-8.2c-5.4-1.9-11.4-2.8-17.9-2.8
		c-4.8,0-9.5,0.3-14.1,0.8c-4.7,0.6-9,1.4-13,2.6c-4,1.2-7.5,2.7-10.5,4.5c-3,1.8-5.3,4-6.8,6.6c-4.1,6.4-7.5,11.3-10.2,14.8
		c-2.7,3.5-4.9,5.2-6.7,5.2c-2.5,0-3.7-2.9-3.7-8.6c0-5.5,0.7-10.5,2.2-14.9s3.5-8.3,6-11.8c2.6-3.4,5.6-6.3,9.2-8.7
		c3.5-2.4,7.4-4.4,11.6-5.9c4.2-1.6,8.7-2.7,13.5-3.4C841.6,24.5,846.5,24.1,851.5,24.1z"/>
	<path class="st0" d="M1012.5,150.7c-1.3,1.8-3,3.9-5.2,6.4c-2.2,2.4-4.6,4.8-7.3,7c-2.7,2.2-5.6,4.1-8.7,5.6
		c-3.1,1.5-6.2,2.3-9.3,2.3c-3.7,0-6.8-1.2-9.3-3.6c-2.5-2.4-4.6-5.9-6.5-10.5c-1.4,1.6-3,3.2-5,4.8c-2,1.6-4.1,3.1-6.5,4.5
		c-2.3,1.3-4.8,2.4-7.3,3.3s-5.1,1.3-7.6,1.3c-2.7,0-5.4-0.6-7.9-1.7c-2.6-1.1-4.9-2.7-6.8-4.8c-2-2.1-3.6-4.6-4.8-7.6
		c-1.2-3-1.8-6.3-1.8-10.1c0-4.2,0.6-8.6,1.8-13.1c1.2-4.5,2.8-8.8,4.9-13.1c2.1-4.3,4.6-8.3,7.4-12.1c2.9-3.8,6-7.1,9.4-9.9
		c3.4-2.8,7-5.1,10.7-6.7c3.8-1.7,7.6-2.5,11.5-2.5c1.3,0,2.3,0.3,3.1,0.8c0.7,0.5,1.3,1.1,1.8,1.7c0.5,0.7,0.9,1.3,1.4,1.9
		c0.5,0.6,1,1.1,1.7,1.4c0.7,0.3,1.4,0.5,2.1,0.6c0.7,0.1,1.4,0.1,2.2,0.1c0.6,0,1.3,0,1.9,0c0.7,0,1.3,0,1.9,0
		c0.8,0,1.6,0.1,2.4,0.3c0.7,0.2,1.4,0.5,2,1.1c0.6,0.6,1,1.4,1.3,2.4c0.3,1,0.5,2.4,0.5,4.2c0,2.7-0.3,5.7-0.8,9
		c-0.6,3.3-1.2,6.7-1.9,10.2c-0.7,3.5-1.3,7-1.9,10.4c-0.6,3.5-0.8,6.8-0.8,9.9c0,2.7,0.2,4.7,0.7,6.2c0.5,1.5,1.5,2.2,3.1,2.2
		c1.2,0,2.4-0.3,3.7-0.9c1.3-0.6,2.6-1.4,3.9-2.3c1.3-1,2.7-2,4-3.3c1.3-1.2,2.6-2.5,3.8-3.8c2.8-3.1,5.6-6.5,8.4-10.4L1012.5,150.7
		z M940,144c0,1.4,0.1,2.8,0.3,4.1c0.2,1.3,0.6,2.5,1.1,3.6c0.5,1,1.2,1.9,2,2.5c0.8,0.7,1.9,1,3.2,1c2.1,0,4-0.9,5.7-2.7
		c1.7-1.8,3.2-4,4.4-6.5s2.2-5.2,3-7.9c0.8-2.7,1.3-5,1.5-6.8l5.2-25c-2.3,0-4.6,0.6-6.8,1.7c-2.2,1.2-4.3,2.7-6.2,4.7
		c-2,2-3.8,4.2-5.4,6.8c-1.6,2.5-3.1,5.2-4.2,8c-1.2,2.8-2.1,5.6-2.8,8.4C940.4,138.8,940,141.5,940,144z"/>
	<path class="st0" d="M1046,106.3c0.5-1.9,1.3-3.6,2.4-5.1c1.2-1.5,2.5-2.8,4-3.8c1.5-1,3.1-1.8,4.7-2.3c1.6-0.5,3.2-0.8,4.7-0.8
		c1.8,0,3.2,0.4,4.4,1.1c1.2,0.8,1.8,2,1.8,3.6c0,0.5-0.1,1.1-0.3,1.8c-0.3,1.5-0.8,3.5-1.3,6c-0.5,2.5-1.1,5.4-1.7,8.7
		s-1.2,6.6-1.8,10.2c-0.6,3.6-1.2,7.2-1.8,10.7c-1.4,8.4-2.9,17.4-4.3,27c1.7-1,3.5-2.2,5.5-3.6c2-1.4,4.2-3.3,6.6-5.7
		c2.4-2.4,5.1-5.4,8.2-9c3-3.6,6.4-8.1,10.1-13.5l4.1,18.8c-1,1.8-2.3,3.6-3.9,5.4c-1.6,1.8-3.4,3.7-5.3,5.5c-2,1.8-4,3.6-6.1,5.3
		c-2.1,1.7-4.2,3.4-6.2,4.9c-4.8,3.6-10,7.1-15.5,10.5c-1.1,6.1-2.3,12-3.8,17.7c-1.5,5.7-3.2,11.1-5.2,16.1s-4.3,9.6-6.9,13.8
		c-2.6,4.2-5.5,7.8-8.7,10.8c-3.3,3-6.9,5.3-10.9,7c-4,1.7-8.5,2.5-13.3,2.5c-1.9,0-4-0.2-6.2-0.6c-2.2-0.4-4.3-1.2-6.2-2.4
		s-3.5-2.9-4.7-5.1c-1.2-2.2-1.9-5.2-1.9-8.8c0-2.5,0.7-5.4,2-8.6c1.3-3.2,3.1-6.6,5.3-10.1c2.3-3.5,5-7.2,8.1-11
		c3.1-3.8,6.5-7.6,10.1-11.4c3.7-3.8,7.5-7.5,11.5-11.2c4-3.7,8-7.2,12.1-10.5l2.3-7.9c-3.1,2.7-6.2,4.9-9.6,6.6
		c-3.3,1.7-6.5,2.5-9.6,2.5c-2.7,0-5.4-0.6-7.9-1.7c-2.6-1.1-4.9-2.7-6.8-4.8c-2-2.1-3.6-4.6-4.8-7.6c-1.2-3-1.8-6.3-1.8-10.1
		c0-4.9,0.2-9.5,0.7-13.6c0.5-4.1,1.2-8.1,2.1-11.8c0.9-3.7,2-7.3,3.4-10.8c1.4-3.5,2.9-7,4.7-10.6c1.3-2.5,3.2-4.5,5.6-5.8
		c2.4-1.3,4.8-2,7.1-2c2,0,3.7,0.5,5.1,1.5c1.4,1,2.1,2.5,2.1,4.6c0,0.6-0.1,1.3-0.2,2c-0.1,0.7-0.4,1.5-0.7,2.4c-1,2.6-2,5.7-3,9.2
		c-1,3.5-1.9,7.2-2.6,10.9c-0.8,3.7-1.4,7.3-1.8,10.9c-0.5,3.6-0.7,6.7-0.7,9.4c0,1.4,0.1,2.8,0.3,4.1c0.2,1.3,0.6,2.5,1.1,3.6
		c0.5,1,1.2,1.9,2,2.5c0.8,0.7,1.9,1,3.2,1c2.1,0,4-0.9,5.7-2.7c1.7-1.8,3.2-4,4.4-6.5s2.2-5.2,3-7.9c0.8-2.7,1.3-5,1.5-6.8
		L1046,106.3z M1006.3,234c2.4,0,4.6-0.7,6.7-2.1c2.1-1.4,4.1-3.2,5.9-5.5c1.8-2.3,3.4-4.8,4.9-7.7c1.5-2.9,2.8-5.8,3.9-8.9
		c1.1-3,2.1-6,2.9-8.9c0.8-2.9,1.4-5.5,1.9-7.7c-2.2,1.5-4.5,3.2-6.7,5.3c-2.3,2-4.5,4.2-6.7,6.6c-2.2,2.3-4.2,4.8-6.2,7.3
		c-2,2.5-3.7,4.9-5.1,7.2s-2.6,4.4-3.5,6.4c-0.8,2-1.3,3.6-1.3,4.9C1002.9,232.9,1004,234,1006.3,234z"/>
</g>
</svg>
