<?xml version="1.0" encoding="utf-8"?>
<!-- Generator: Adobe Illustrator 21.0.2, SVG Export Plug-In . SVG Version: 6.00 Build 0)  -->
<svg version="1.1" id="Layer_1" xmlns="http://www.w3.org/2000/svg" xmlns:xlink="http://www.w3.org/1999/xlink" x="0px" y="0px"
	 viewBox="0 0 300 300" style="enable-background:new 0 0 300 300;" xml:space="preserve">
<style type="text/css">
	.st0{fill:#FFFFFF;}
</style>
<g id="VDTWQj_1_">
	<g>
		<path class="st0" d="M297,150.7c0.3,80.8-65.4,146.8-146.6,147.2C69.5,298.3,3.3,232.5,3,151.2C2.7,70.2,68.5,4.2,149.8,3.9
			C230.7,3.6,296.7,69.5,297,150.7z M284.7,151.4c0.2-73.8-60-134.3-134-134.7C75.9,16.5,15.5,76.5,15.3,151.5
			C15,225.2,75.3,285.9,149,286.2C224.2,286.5,284.4,226.6,284.7,151.4z"/>
		<path class="st0" d="M149.7,110.7c-21.7,0-43.5,0-65.2,0c-7.3,0-11.8-6.3-9.4-12.8c1.5-3.9,4.8-6,9.9-6c20,0,39.9,0,59.9,0
			c23.5,0,47,0,70.5,0c7.3,0,11.9,6.1,9.6,12.7c-1.4,4-4.8,6.1-9.8,6.1C193.4,110.7,171.5,110.7,149.7,110.7z"/>
		<path class="st0" d="M149.7,160.9c-21.6,0-43.3,0-64.9,0c-4.2,0-7.5-1.5-9.4-5.4c-3-6.4,1.5-13.4,8.7-13.4c10.9-0.1,21.8,0,32.8,0
			c32.8,0,65.7,0,98.5,0c7.4,0,12.1,6.4,9.5,12.9c-1.5,3.8-4.9,5.9-9.7,5.9C193.4,160.9,171.5,160.9,149.7,160.9z"/>
		<path class="st0" d="M150,191.7c21.8,0,43.7,0,65.5,0c7.3,0,11.8,6.3,9.4,12.7c-1.4,3.8-4.8,6-9.5,6c-15.7,0-31.5,0-47.2,0
			c-27.8,0-55.7,0-83.5,0c-7.4,0-12.1-6.3-9.5-12.9c1.5-3.8,4.8-5.9,9.6-5.9c20.5,0,40.9,0,61.4,0
			C147.4,191.7,148.7,191.7,150,191.7z"/>
	</g>
</g>
</svg>
