<?xml version="1.0" encoding="utf-8"?>
<!-- Generator: Adobe Illustrator 21.0.2, SVG Export Plug-In . SVG Version: 6.00 Build 0)  -->
<svg version="1.1" id="Layer_1" xmlns="http://www.w3.org/2000/svg" xmlns:xlink="http://www.w3.org/1999/xlink" x="0px" y="0px"
	 viewBox="0 0 300 300" style="enable-background:new 0 0 300 300;" xml:space="preserve">
<style type="text/css">
	.st0{fill:#BABABA;}
</style>
<g>
	<path class="st0" d="M151,3C69.9,3,4,68.9,4,150s65.9,147,147,147s147-65.9,147-147S232.1,3,151,3z M151,280.4
		c-71.9,0-130.4-58.5-130.4-130.4S79.1,19.6,151,19.6S281.4,78.1,281.4,150S222.9,280.4,151,280.4z"/>
	<polygon class="st0" points="191.8,130.6 191.6,130.8 125.1,64.3 113.7,75.6 180.3,142.1 113.7,208.7 125.1,220 191.6,153.5 
		191.8,153.7 203.1,142.4 202.9,142.1 203.1,141.9 	"/>
</g>
</svg>
