<?xml version="1.0" encoding="utf-8"?>
<!-- Generator: Adobe Illustrator 21.0.2, SVG Export Plug-In . SVG Version: 6.00 Build 0)  -->
<svg version="1.1" id="Layer_1" xmlns="http://www.w3.org/2000/svg" xmlns:xlink="http://www.w3.org/1999/xlink" x="0px" y="0px"
	 viewBox="0 0 288.7 283.7" style="enable-background:new 0 0 288.7 283.7;" xml:space="preserve">
<style type="text/css">
	.st0{fill:#86BDBB;}
</style>
<path class="st0" d="M284.9,131.3c-42.6,0-85.1,0-127.6,0c0-42.5,0-85,0-127.6c42.5,0,85,0,127.6,0
	C284.9,46.1,284.9,88.6,284.9,131.3z M199.9,46.2c0,14.3,0,28.3,0,42.4c14.2,0,28.3,0,42.4,0c0-14.2,0-28.2,0-42.4
	C228.1,46.2,214.1,46.2,199.9,46.2z"/>
<path class="st0" d="M132.2,131.7c-42.6,0-85.1,0-127.6,0c0-42.5,0-85,0-127.6c42.5,0,85,0,127.6,0C132.2,46.5,132.2,89,132.2,131.7
	z M47.3,46.6c0,14.3,0,28.3,0,42.4c14.2,0,28.3,0,42.4,0c0-14.2,0-28.2,0-42.4C75.5,46.6,61.5,46.6,47.3,46.6z"/>
<path class="st0" d="M283.6,281.4c-42.6,0-85.1,0-127.6,0c0-42.5,0-85,0-127.6c42.5,0,85,0,127.6,0
	C283.6,196.2,283.6,238.7,283.6,281.4z M198.6,196.3c0,14.3,0,28.3,0,42.4c14.2,0,28.3,0,42.4,0c0-14.2,0-28.2,0-42.4
	C226.8,196.3,212.8,196.3,198.6,196.3z"/>
<path class="st0" d="M131,281.8c-42.6,0-85.1,0-127.6,0c0-42.5,0-85,0-127.6c42.5,0,85,0,127.6,0C131,196.6,131,239.1,131,281.8z
	 M46,196.7c0,14.3,0,28.3,0,42.4c14.2,0,28.3,0,42.4,0c0-14.2,0-28.2,0-42.4C74.2,196.7,60.2,196.7,46,196.7z"/>
</svg>
